<svg width="62" height="60" viewBox="0 0 62 60" fill="none" xmlns="http://www.w3.org/2000/svg"><path d="M36.097.833a29.793 29.793 0 1 0-6.35 58.959 1.103 1.103 0 1 0 .02-2.207A27.586 27.586 0 1 1 54.88 41.96l-.29-4.564a1.103 1.103 0 1 0-2.202.14l.522 8.228a1.103 1.103 0 0 0 1.713.85l6.864-4.568a1.104 1.104 0 0 0-1.222-1.837l-3.093 2.058A29.793 29.793 0 0 0 36.097.833z" fill="#fff"/><path d="M42.725 57.913c0-.61-.494-1.104-1.103-1.104h-3.08l2.045-1.89c.723-.661 1.208-1.25 1.456-1.766a3.753 3.753 0 0 0 .388-1.674c0-.66-.181-1.24-.543-1.735-.35-.506-.847-.894-1.487-1.162-.63-.269-1.358-.403-2.185-.403-1.043 0-1.947.202-2.711.604-.406.214-.763.47-1.073.768-.45.433-.257 1.142.288 1.446l.371.207c.51.285 1.14.081 1.643-.218a2.292 2.292 0 0 1 1.203-.328c.455 0 .801.098 1.039.295.237.196.356.47.356.82 0 .27-.067.538-.202.806-.134.258-.397.574-.79.945l-3.71 3.47c-.222.208-.349.5-.349.805v.34c0 .608.494 1.102 1.104 1.102h6.237c.609 0 1.103-.493 1.103-1.103v-.225zm10.249-.748c.61 0 1.104-.494 1.104-1.103v-.226c0-.61-.494-1.103-1.104-1.103h-.507v-.74c0-.61-.495-1.104-1.104-1.104h-.69c-.61 0-1.104.494-1.104 1.104v.74h-2.2l3.207-4.603a1.103 1.103 0 0 0-.905-1.734h-.496a1.1 1.1 0 0 0-.896.46l-3.962 5.513a3.05 3.05 0 0 0-.573 1.78c0 .561.455 1.016 1.016 1.016h4.716v.973c0 .61.494 1.104 1.104 1.104h.783c.61 0 1.104-.494 1.104-1.104v-.973h.508zM30.02 5.724c.61 0 1.104.494 1.104 1.104v6.62a1.103 1.103 0 1 1-2.207 0v-6.62c0-.61.494-1.104 1.104-1.104zM6.848 28.896a1.104 1.104 0 0 0 0 2.207h6.62a1.103 1.103 0 1 0 0-2.207h-6.62zm16.215-5.399c.43-.43 1.13-.43 1.56 0l5.462 5.462L41.79 17.255a1.103 1.103 0 0 1 1.56 1.56L30.867 31.3c-.431.43-1.13.43-1.56 0l-6.243-6.242a1.105 1.105 0 0 1 0-1.56z" fill="#fff"/></svg>