<svg width="36" height="48" viewBox="0 0 36 48" fill="none" xmlns="http://www.w3.org/2000/svg"><path d="M19.827 33.624a3.91 3.91 0 0 0 2.219-3.532c0-2.158-1.738-3.907-3.882-3.907-2.143 0-3.881 1.749-3.881 3.907a3.91 3.91 0 0 0 2.218 3.532l-.924 5.585h5.175l-.925-5.585z" fill="#fff"/><path fill-rule="evenodd" clip-rule="evenodd" d="M6.117 12.738v6.069H5.014A4.414 4.414 0 0 0 .6 23.22v19.862a4.414 4.414 0 0 0 4.414 4.414h26.483a4.414 4.414 0 0 0 4.413-4.414V23.22a4.414 4.414 0 0 0-4.413-4.413h-1.104v-6.07C30.393 6.035 24.96.6 18.255.6 11.552.6 6.117 6.034 6.117 12.738zm12.138-9.931c-5.484 0-9.93 4.446-9.93 9.93v6.07h19.861v-6.07c0-5.484-4.446-9.93-9.93-9.93zM5.014 21.013a2.207 2.207 0 0 0-2.207 2.207v19.862c0 1.22.988 2.207 2.207 2.207h26.483a2.207 2.207 0 0 0 2.206-2.207V23.22a2.207 2.207 0 0 0-2.206-2.207H5.014z" fill="#fff"/></svg>