<svg width="49" height="44" viewBox="0 0 49 44" fill="none" xmlns="http://www.w3.org/2000/svg"><path fill-rule="evenodd" clip-rule="evenodd" d="M27.035 28.509v9.479c0 4.72-5.541 7.26-9.118 4.18L6.3 32.166H4.414A4.414 4.414 0 0 1 0 27.75V16.165a4.414 4.414 0 0 1 4.414-4.414H6.3L17.917 1.748c3.576-3.08 9.117-.54 9.117 4.18v8.928a7.176 7.176 0 0 1 0 13.653zm-7.678-25.09c2.146-1.847 5.47-.322 5.47 2.51v32.059c0 2.831-3.324 4.356-5.47 2.508l-11.544-9.94V13.36l11.544-9.94zm7.678 22.712a4.965 4.965 0 0 0 0-8.898v8.898zM5.606 13.958v16H4.414a2.207 2.207 0 0 1-2.207-2.207V16.165c0-1.219.988-2.207 2.207-2.207h1.192z" fill="#fff"/><path d="M36.67 1.113a1.103 1.103 0 0 1 1.555-.14 27.375 27.375 0 0 1 7.1 9.126 27.822 27.822 0 0 1 2.743 11.293c.11 3.92-.606 7.818-2.103 11.433a27.449 27.449 0 0 1-6.573 9.524 1.103 1.103 0 0 1-1.51-1.61 25.24 25.24 0 0 0 6.044-8.758 25.647 25.647 0 0 0 1.936-10.527 25.613 25.613 0 0 0-2.525-10.397 25.166 25.166 0 0 0-6.527-8.39 1.104 1.104 0 0 1-.14-1.554z" fill="#fff"/><path d="M37.15 9.826a1.103 1.103 0 1 0-1.472 1.644 13.403 13.403 0 0 1 3.262 4.496 14.61 14.61 0 0 1 1.27 5.601 14.697 14.697 0 0 1-.974 5.674 13.602 13.602 0 0 1-3.024 4.698 1.103 1.103 0 1 0 1.565 1.556 15.807 15.807 0 0 0 3.518-5.46 16.904 16.904 0 0 0 1.12-6.526 16.816 16.816 0 0 0-1.462-6.448 15.608 15.608 0 0 0-3.803-5.235z" fill="#fff"/></svg>