<svg width="66" height="47" viewBox="0 0 66 47" fill="none" xmlns="http://www.w3.org/2000/svg"><path fill-rule="evenodd" clip-rule="evenodd" d="M27.356.867a7.916 7.916 0 0 0-6.838 2.15l-8.08 7.909a4.414 4.414 0 0 0-.007 6.303L39.54 43.862a7.724 7.724 0 0 0 5.413 2.214h15.775a4.414 4.414 0 0 0 4.413-4.414v-.827a8.552 8.552 0 0 0-8.551-8.552h-2.003a4.567 4.567 0 0 1-4.22-2.821l-.297-.716.13-.037a1.103 1.103 0 0 0-.594-2.125l-.386.108-.566-1.369.149-.041a1.103 1.103 0 0 0-.594-2.125l-.405.113-.566-1.368.168-.047a1.103 1.103 0 1 0-.595-2.125l-.422.118-.759-1.833a3.31 3.31 0 0 0-2.314-1.96l-3.563-.822A12.64 12.64 0 0 1 30.01 4.088l-.038-.409A3.147 3.147 0 0 0 27.356.867zM47.08 27.29l-.566-1.368-4.087 1.142a1.103 1.103 0 0 1-.594-2.125l3.83-1.071-.565-1.368-4.069 1.137a1.104 1.104 0 0 1-.594-2.125l3.813-1.066-.657-1.587a1.103 1.103 0 0 0-.771-.653l-3.563-.822A14.846 14.846 0 0 1 27.813 4.293l-.038-.41a.94.94 0 0 0-.782-.84 5.709 5.709 0 0 0-4.931 1.552l-6.396 6.26 26.523 27.21a5.517 5.517 0 0 0 3.951 1.666h16.7a6.347 6.347 0 0 0-6.25-5.241h-2.002a6.774 6.774 0 0 1-6.26-4.184l-.397-.962-4.106 1.147a1.103 1.103 0 1 1-.594-2.125l3.85-1.076zm-.94 14.648h16.777a2.207 2.207 0 0 1-2.19 1.931H44.954a5.517 5.517 0 0 1-3.867-1.582L13.978 15.655a2.207 2.207 0 0 1 .003-3.152l.107-.105L40.61 39.605a7.724 7.724 0 0 0 5.531 2.333z" fill="#fff"/><path d="M18.855 43.869a1.103 1.103 0 1 0 0 2.207h15.449a1.104 1.104 0 0 0 0-2.207H18.855zM.648 40.559c0-.61.494-1.104 1.104-1.104h23.724a1.103 1.103 0 1 1 0 2.207H1.752c-.61 0-1.104-.494-1.104-1.103z" fill="#fff"/></svg>