<svg width="74" height="51" viewBox="0 0 74 51" fill="none" xmlns="http://www.w3.org/2000/svg"><path fill-rule="evenodd" clip-rule="evenodd" d="M73.6 1.504c0-.61-.494-1.103-1.103-1.103H35.172a7.724 7.724 0 0 0-7.724 7.724v3.586a7.724 7.724 0 0 0 7.724 7.724h9.931a5.517 5.517 0 0 1 5.518 5.517v4.69a5.517 5.517 0 0 1-5.518 5.517h-12.69v-2.345a3.172 3.172 0 0 0-3.171-3.172h-.966a5.517 5.517 0 0 0-5.517-5.517h-8a2.207 2.207 0 0 0-2.207-2.207h-2.207a2.207 2.207 0 0 0-2.207 2.207v4.413h-6.62a1.103 1.103 0 1 0 0 2.207h6.62v4.414H4.276a1.104 1.104 0 0 0 0 2.207h3.862v4.414h-6.62a1.103 1.103 0 0 0 0 2.207h6.62V48.4c0 1.22.988 2.207 2.207 2.207h2.207a2.207 2.207 0 0 0 2.207-2.206h8a5.517 5.517 0 0 0 5.517-5.518h.965a3.172 3.172 0 0 0 3.173-3.172v-2.345h12.69a7.724 7.724 0 0 0 7.724-7.724v-4.69a7.724 7.724 0 0 0-7.725-7.724h-9.93a5.517 5.517 0 0 1-5.518-5.517V8.125a5.517 5.517 0 0 1 5.517-5.518h37.325c.61 0 1.103-.494 1.103-1.103zM29.242 40.676a.966.966 0 0 0 .965-.965v-6.897a.966.966 0 0 0-.966-.965h-.965a2.207 2.207 0 0 1-2.207-2.207 3.31 3.31 0 0 0-3.31-3.31h-8v19.862h8a3.31 3.31 0 0 0 3.31-3.31c0-1.22.988-2.208 2.207-2.208h.965zM12.552 48.4h-2.207V24.126h2.207V48.4z" fill="#FCFCFF"/></svg>