<svg width="43" height="52" viewBox="0 0 43 52" fill="none" xmlns="http://www.w3.org/2000/svg"><path fill-rule="evenodd" clip-rule="evenodd" d="M10.683.4L9.206 6.693a11.035 11.035 0 0 1-6.913 7.828L.2 15.296l2.093.774a11.12 11.12 0 0 1 1.005.43 11.035 11.035 0 0 1 5.908 7.398l1.477 6.294 1.477-6.294a11.035 11.035 0 0 1 6.913-7.828l2.093-.774-2.093-.774a11.044 11.044 0 0 1-1.005-.43 11.035 11.035 0 0 1-5.908-7.398L10.683.399zm0 8.874a13.247 13.247 0 0 1-5.035 6.022 13.246 13.246 0 0 1 5.035 6.022 13.245 13.245 0 0 1 5.035-6.022 13.246 13.246 0 0 1-5.035-6.022z" fill="#fff"/><path d="M23.924 34.461l.855 3.644a6.388 6.388 0 0 0 4.003 4.532l1.211.448-1.211.449a6.388 6.388 0 0 0-4.003 4.532l-.855 3.644-.855-3.645a6.388 6.388 0 0 0-4.002-4.531l-1.212-.449 1.212-.448a6.389 6.389 0 0 0 4.002-4.532l.855-3.644zm14.178-17.452l-.66-2.816-.661 2.816a4.937 4.937 0 0 1-3.093 3.501l-.936.347.936.346a4.937 4.937 0 0 1 3.093 3.502l.66 2.816.661-2.816a4.936 4.936 0 0 1 3.093-3.502l.936-.346-.936-.347a4.936 4.936 0 0 1-3.093-3.502z" fill="#fff"/></svg>