<svg width="64" height="64" viewBox="0 0 64 64" fill="none" xmlns="http://www.w3.org/2000/svg"><path d="M58.297 0A5.7 5.7 0 0 1 64 5.698v6.382a1.14 1.14 0 0 1-2.281 0V5.698a3.42 3.42 0 0 0-3.422-3.418H51.91a1.14 1.14 0 1 1 0-2.28h6.387zM5.703 0A5.7 5.7 0 0 0 0 5.699v6.382a1.14 1.14 0 0 0 2.281 0V5.698A3.42 3.42 0 0 1 5.703 2.28h6.387a1.14 1.14 0 1 0 0-2.28H5.703zM0 58.28a5.7 5.7 0 0 0 5.703 5.698h6.387a1.14 1.14 0 1 0 0-2.279H5.703A3.42 3.42 0 0 1 2.28 58.28V51.9a1.14 1.14 0 0 0-2.281 0v6.381zm58.297 5.698A5.7 5.7 0 0 0 64 58.28V51.9a1.14 1.14 0 0 0-2.281 0v6.381a3.42 3.42 0 0 1-3.422 3.419H51.91a1.14 1.14 0 1 0 0 2.28h6.387z" fill="#fff"/><path fill-rule="evenodd" clip-rule="evenodd" d="M24.494 23.064a4.983 4.983 0 1 0-7.047 7.046 4.983 4.983 0 0 0 7.047-7.046zm-5.487 1.56a2.776 2.776 0 1 1 3.926 3.926 2.776 2.776 0 0 1-3.926-3.926z" fill="#fff"/><path fill-rule="evenodd" clip-rule="evenodd" d="M36.312 15.466c-5.91-5.908-15.489-5.908-21.398 0-5.908 5.91-5.908 15.49 0 21.398 4.354 4.354 10.7 5.498 16.1 3.438l13.32 13.32 9.243.514-.541-10.825-4.161.417v-4.581l-4.376.208.177-3.706-4.704-4.705c1.746-5.259.528-11.29-3.66-15.477zm-19.837 1.561c5.047-5.047 13.23-5.047 18.276 0 3.731 3.731 4.706 9.177 2.917 13.805l-.26.67 5.017 5.017-.245 5.156 4.488-.214v4.705l4.28-.428.303 6.058-5.952-.33L31.52 37.688l-.69.305c-4.74 2.089-10.476 1.19-14.356-2.69-5.047-5.046-5.047-13.23 0-18.276z" fill="#fff"/></svg>